<svg width="60" height="60" fill="none" xmlns="http://www.w3.org/2000/svg"><path d="M26.18 26.582v6.899l7.327-.063-1.941-2.152 11.712-11.709 6.388.506L60 10.76H49.353V0l-9.395 8.86v7.09L27.933 28.417l-1.753-1.836z" fill="#000"/><path d="M52.797 21.582a26.57 26.57 0 011.692 9.24c0 14.305-11.524 25.95-25.679 25.95-14.154 0-25.678-11.645-25.678-25.95 0-14.303 11.524-25.949 25.678-25.949 3.257 0 6.388.633 9.27 1.773V3.29c-2.882-1.012-6.013-1.519-9.27-1.519C12.902 1.772 0 14.81 0 30.886S12.902 60 28.81 60s28.81-13.038 28.81-29.114c0-3.354-.564-6.582-1.628-9.62l-3.194.316z" fill="#000"/><path d="M34.259 12.848c-1.754-.57-3.57-.823-5.512-.823-10.334 0-18.726 8.481-18.726 18.924s8.392 18.924 18.726 18.924 18.727-8.48 18.727-18.924c0-2.468-.501-4.873-1.315-7.025L43.59 26.14c.5 1.52.751 3.165.751 4.81 0 8.671-7.014 15.76-15.595 15.76-8.58 0-15.532-7.089-15.532-15.76 0-8.67 6.952-15.76 15.532-15.76 1.065 0 2.067.127 3.007.317l2.505-2.658z" fill="#000"/><path d="M28.81 24.05l2.693-2.784a8.817 8.817 0 00-2.63-.38c-5.261 0-9.457 4.304-9.457 9.557 0 5.316 4.258 9.557 9.457 9.557 5.26 0 9.457-4.304 9.457-9.557a8.95 8.95 0 00-.376-2.595l-2.756 2.722c-.062 3.48-2.88 6.265-6.325 6.265-3.508 0-6.326-2.848-6.326-6.392.063-3.481 2.818-6.33 6.263-6.393z" fill="#000"/></svg>