<svg width="49" height="59" fill="none" xmlns="http://www.w3.org/2000/svg"><path d="M.5 9.605V4.434c0-1.29 1.055-2.33 2.346-2.328M.5 9.606l3.502-7c.005 0 .01.001.014.003l.014.003M.5 9.605a2.339 2.339 0 002.345 2.33h.906a3.562 3.562 0 001.878 1.433V45.63a3.56 3.56 0 00-1.878 1.434h-.906A2.34 2.34 0 00.5 49.394v5.17a2.34 2.34 0 002.345 2.33h.906M.5 9.605l3.251 47.289M2.846 2.106s0 0 0 0v.5-.5h0zm0 0h.905m0 0a3.79 3.79 0 00-.16.268l.411.223.028.015m-.28-.506A3.548 3.548 0 016.719.5h35.356a3.55 3.55 0 012.968 1.606m-41.291 0h.251a.532.532 0 01.152.022l.009.003H4.16a.443.443 0 00-.13-.02v.5m0 0l41.01-.505m0 0h-.043a1.192 1.192 0 00-.35.062l.134.481.216-.112.227-.12a3.578 3.578 0 00-.183-.311zm0 0h1.114c1.29 0 2.345 1.04 2.345 2.329v5.171a2.34 2.34 0 01-2.345 2.329h-1.113m0-9.829l-.26 9.286m.26.543c.066-.1.127-.205.183-.312l-.227-.119-.216-.112m.26.543h-.044c-.147 0-.286-.043-.336-.058l-.014-.004.134-.481m.26.543a3.558 3.558 0 01-1.878 1.433m1.618-1.976a3.056 3.056 0 01-2.118 1.59m.5.386v-.387h-.5m.5.387v32.263m0-32.263a3.502 3.502 0 01-.405.104l-.095-.49m0 0l.5 32.65m0 0a3.497 3.497 0 00-.405-.105l-.095.491h.5v-.387zm0 0a3.56 3.56 0 011.878 1.432m-1.878-1.433l1.618 1.977m.26-.544h-.044a1.192 1.192 0 00-.35.062l.134.482m.26-.544c.066.1.127.205.183.312l-.227.119-.216.113m.26-.544h1.113a2.34 2.34 0 012.345 2.33v5.17a2.34 2.34 0 01-2.345 2.33h-1.113m-.26-9.286l.032-.01a.65.65 0 01.184-.034h1.157A1.84 1.84 0 0148 49.394v5.17a1.84 1.84 0 01-1.845 1.83h-1.157c-.066 0-.125-.017-.184-.034l-.032-.01m.26.544c.066-.1.127-.204.183-.311l-.227-.12-.216-.112m.26.543a3.55 3.55 0 01-2.968 1.606H6.718a3.55 3.55 0 01-2.967-1.606m41.29 0h-.043c-.147 0-.286-.042-.336-.058l-.014-.004.134-.481m0 0l-41.031.543M45.849 4.741v4.556h-.212V4.741h.212zm-5.337 8.8v31.917H8.28V13.54h32.23zm5.337 36.16v4.557h-.212V49.7h.212zM3.15 54.258V49.7h.004v4.557H3.15zm3.567-6.163h35.356c.506 0 .911.408.911.9v5.97c0 .49-.405.899-.91.899H6.717a.907.907 0 01-.911-.9v-5.97c0-.49.404-.899.91-.899zm-.911-44.06c0-.491.405-.9.91-.9h35.357c.506 0 .911.409.911.9v5.97c0 .49-.405.898-.91.898H6.717a.907.907 0 01-.911-.899v-5.97zM3.15 9.297V4.742h.004v4.556H3.15z" fill="#000" stroke="#000"/></svg>