<svg width="60" height="60" fill="none" xmlns="http://www.w3.org/2000/svg"><path d="M29.952 45.03c8.314 0 15.079-6.763 15.079-15.078 0-8.314-6.764-15.078-15.079-15.078-8.314 0-15.078 6.764-15.078 15.078 0 8.315 6.764 15.079 15.078 15.079zm-8.3-4.355a8.253 8.253 0 015.884-7.803.75.75 0 00.14-1.376 5.144 5.144 0 012.456-9.664 5.149 5.149 0 015.143 5.143 5.125 5.125 0 01-2.816 4.583.748.748 0 00.104 1.38 8.287 8.287 0 015.69 7.736 13.495 13.495 0 01-8.3 2.857 13.496 13.496 0 01-8.3-2.856zm8.3-24.301c7.488 0 13.579 6.092 13.579 13.578 0 3.685-1.48 7.027-3.871 9.476a9.783 9.783 0 00-5.274-7.353 6.607 6.607 0 002.389-5.1 6.65 6.65 0 00-6.643-6.643 6.65 6.65 0 00-6.643 6.643 6.64 6.64 0 002.25 4.985 9.726 9.726 0 00-5.495 7.467 13.527 13.527 0 01-3.87-9.475c0-7.486 6.091-13.578 13.578-13.578zm4.823-11.621C34.775 2.133 32.633 0 30 0c-2.633 0-4.775 2.132-4.775 4.753 0 2.62 2.142 4.752 4.775 4.752 2.633 0 4.775-2.132 4.775-4.752zm-8.05 0c0-1.794 1.47-3.253 3.275-3.253 1.806 0 3.275 1.459 3.275 3.253 0 1.793-1.47 3.252-3.275 3.252-1.806 0-3.275-1.46-3.275-3.252zM12.17 7.384h-.014a4.754 4.754 0 00-3.37 1.403 4.756 4.756 0 00-1.402 3.37 4.709 4.709 0 001.387 3.367 4.709 4.709 0 003.353 1.387h.014a4.755 4.755 0 003.37-1.403 4.754 4.754 0 001.403-3.37 4.708 4.708 0 00-1.387-3.367 4.709 4.709 0 00-3.354-1.387zm2.277 7.063c-1.277 1.277-3.347 1.283-4.615.016a3.22 3.22 0 01-.948-2.303 3.266 3.266 0 01.963-2.313 3.276 3.276 0 012.323-.962 3.23 3.23 0 013.24 3.249 3.263 3.263 0 01-.963 2.313zM0 30c0 2.633 2.132 4.775 4.752 4.775 2.62 0 4.753-2.142 4.753-4.775 0-2.633-2.132-4.775-4.753-4.775C2.132 25.225 0 27.367 0 30zm8.005 0c0 1.805-1.459 3.275-3.253 3.275C2.96 33.275 1.5 31.805 1.5 30s1.459-3.275 3.252-3.275c1.794 0 3.253 1.47 3.253 3.275zm.782 21.213a4.755 4.755 0 003.37 1.404h.013a4.708 4.708 0 003.354-1.388 4.708 4.708 0 001.387-3.367 4.752 4.752 0 00-1.403-3.37 4.755 4.755 0 00-3.37-1.403h-.014a4.708 4.708 0 00-3.353 1.387 4.709 4.709 0 00-1.387 3.367 4.756 4.756 0 001.403 3.37zm1.045-5.676a3.23 3.23 0 012.292-.946c.84 0 1.682.32 2.323.962.62.619.962 1.44.964 2.313a3.22 3.22 0 01-.948 2.303c-1.269 1.268-3.339 1.26-4.616-.016a3.266 3.266 0 01-.963-2.313 3.22 3.22 0 01.948-2.303zm24.943 9.71c0-2.62-2.142-4.752-4.775-4.752-2.633 0-4.775 2.132-4.775 4.752C25.225 57.867 27.367 60 30 60c2.633 0 4.775-2.132 4.775-4.753zm-8.05 0c0-1.793 1.47-3.252 3.275-3.252 1.806 0 3.275 1.46 3.275 3.252 0 1.794-1.47 3.253-3.275 3.253-1.806 0-3.275-1.459-3.275-3.253zM47.862 43.09a4.754 4.754 0 00-3.37 1.402 4.754 4.754 0 00-1.403 3.37 4.708 4.708 0 001.387 3.367 4.709 4.709 0 003.354 1.388h.014a4.755 4.755 0 003.37-1.404 4.756 4.756 0 001.403-3.37 4.71 4.71 0 00-1.388-3.367 4.709 4.709 0 00-3.353-1.387h-.014zm3.255 4.75a3.266 3.266 0 01-.964 2.313c-1.278 1.277-3.348 1.284-4.616.016a3.22 3.22 0 01-.948-2.303 3.263 3.263 0 01.964-2.313 3.275 3.275 0 012.323-.962 3.232 3.232 0 013.24 3.249zm4.131-22.615c-2.62 0-4.753 2.142-4.753 4.775 0 2.633 2.132 4.775 4.753 4.775C57.868 34.775 60 32.633 60 30c0-2.633-2.132-4.775-4.752-4.775zm0 8.05c-1.794 0-3.253-1.47-3.253-3.275s1.459-3.275 3.253-3.275c1.793 0 3.252 1.47 3.252 3.275s-1.459 3.275-3.252 3.275zM47.844 7.384h-.014a4.708 4.708 0 00-3.354 1.387 4.709 4.709 0 00-1.387 3.367 4.752 4.752 0 001.404 3.37 4.754 4.754 0 003.369 1.403h.014a4.708 4.708 0 003.353-1.387 4.71 4.71 0 001.388-3.367 4.756 4.756 0 00-1.404-3.37 4.755 4.755 0 00-3.37-1.403zm2.324 7.08c-1.268 1.267-3.338 1.261-4.615-.017a3.263 3.263 0 01-.964-2.313 3.23 3.23 0 013.24-3.249c.84 0 1.682.32 2.324.962.619.62.96 1.441.964 2.313a3.22 3.22 0 01-.949 2.303zM41.916 8.59a.747.747 0 001.021-.289.75.75 0 00-.29-1.02 25.845 25.845 0 00-5.22-2.202A.748.748 0 1037 6.516a24.41 24.41 0 014.916 2.074zm-23.862-.081c.12 0 .243-.03.357-.091a24.385 24.385 0 014.943-2.01.75.75 0 10-.41-1.443A25.864 25.864 0 0017.698 7.1a.75.75 0 00.357 1.41zM5.173 22.479a.75.75 0 101.437.428 24.408 24.408 0 012.075-4.917.75.75 0 10-1.31-.731 25.897 25.897 0 00-2.202 5.22zm1.328 14.072a.749.749 0 10-1.442.41 25.911 25.911 0 002.134 5.248.749.749 0 101.319-.713 24.415 24.415 0 01-2.01-4.945zm16.071 18.182a.751.751 0 00.933-.505.75.75 0 00-.505-.932 24.408 24.408 0 01-4.917-2.074.75.75 0 10-.73 1.31 25.846 25.846 0 005.22 2.201zm14.278.143a.737.737 0 00.206-.029 25.861 25.861 0 005.247-2.133.75.75 0 00-.714-1.32 24.386 24.386 0 01-4.943 2.01.75.75 0 00.204 1.472zm17.472-18.475a.75.75 0 00-.933.505 24.404 24.404 0 01-2.074 4.917.75.75 0 101.31.73 25.9 25.9 0 002.202-5.22.75.75 0 00-.505-.932zm-2.833-18.085a24.415 24.415 0 012.01 4.945.75.75 0 001.442-.41 25.909 25.909 0 00-2.133-5.248.751.751 0 00-1.32.713z" fill="#000"/></svg>