<svg width="252" height="81" fill="none" xmlns="http://www.w3.org/2000/svg"><circle cx="22.811" cy="39.5" r="22.12" stroke="#000" stroke-width="1.383"/><path d="M56.516 36.422h5.935c2.732 0 4.05-2.12 4.074-4.192v-.07c0-1.956-1.154-3.84-3.297-3.84H58.8c-1.931 0-2.284.636-2.284 1.437v6.665zm0 2.285v5.228c0 .777.353 1.437 2.284 1.437h5.63c2.001 0 3.131-1.649 3.273-3.462 0-.118.023-.26.023-.377 0-2.096-1.319-4.287-4.098-4.287H58.8c-1.931 0-2.284.66-2.284 1.46zm-1.46 5.322V29.64c-.048-1.672-1.555-1.72-1.696-1.72h-.024v-.07h10.387c3.085 0 4.616 2.05 4.616 4.216v.094c-.024 1.908-1.225 3.84-3.557 4.57 3.18.352 4.758 2.684 4.758 4.898v.094c-.07 2.143-1.602 4.122-4.616 4.122H53.336v-.07h.024c.141 0 1.648-.048 1.696-1.744zm22.861 2.19c-2.732 0-5.417-1.483-5.487-4.64v-7.842c0-1.413-1.296-1.46-1.437-1.46h-.024v-.07h.448c.942 0 2.072-.071 2.45-.33v9.68c.117 2.943 2.33 4.168 4.568 4.168h.189c2.378-.07 4.592-1.507 4.592-4.946v-6.995c0-1.413-1.295-1.46-1.436-1.46h-.024v-.07h.259c.99 0 2.214-.118 2.614-.377v12.411c0 1.437 1.296 1.484 1.437 1.484h.023v.047c-1.012 0-2.425.094-2.873.377v-2.237c-1.201 1.319-2.944 2.143-4.804 2.237l-.495.024zm14.706-.023h-.188c-2.167-.023-4.192-.66-5.346-2.426l.895-1.601.306.117a2.031 2.031 0 00-.165.801c0 1.649 2.214 2.638 4.169 2.638h.094c2.12 0 4.145-.73 4.38-2.756v-.14c0-1.178-1.389-2.073-2.308-2.568-2.567-1.342-6.665-2.214-6.712-4.828v-.024c0-2.19 2.379-3.156 4.899-3.18 1.884 0 3.815.519 4.757 1.461l-.541 1.743-.212-.024.023-.282c0-1.531-2.002-2.403-4.027-2.497h-.283c-1.813 0-3.627.613-3.627 2.096v.024c0 1.743 2.356 2.331 4.499 3.344 2.402 1.107 4.64 2.19 4.64 4.499l-.048.565c-.306 2.096-2.708 3.038-5.205 3.038zm10.652-.353h-4.333v-.07h.023c.165 0 1.461-.048 1.461-1.367V33.761c0-1.437-1.32-1.484-1.46-1.484h-.024v-.047c1.013 0 2.426-.047 2.873-.353v12.53c0 1.318 1.272 1.365 1.437 1.365h.023v.07zm-2.096-14.956c-.4 0-.753-.353-.753-.777 0-.424.353-.753.753-.753.424 0 .777.33.777.753a.784.784 0 01-.777.777zm18.515 14.956h-4.098v-.07h.047c.235 0 1.319-.072 1.319-1.39V37.41c-.142-3.132-2.497-4.687-4.923-4.687h-.047c-2.261 0-4.404 1.343-4.404 4.57v7.041c0 .848.518 1.437 1.413 1.437h.047v.07h-4.31v-.046s1.461 0 1.461-1.437V33.714c0-.801-.401-1.154-.801-1.32-.33-.14-.66-.14-.66-.14v-.071h.566c.895 0 1.907-.047 2.284-.283v2.261c1.154-1.295 2.921-1.908 4.71-1.908 2.968 0 5.959 1.767 6.03 5.135v6.947c0 1.39 1.201 1.437 1.342 1.437h.024v.07zm7.618.377h-.071c-3.721-.071-6.429-3.51-6.429-7.066 0-3.674 2.685-6.854 6.5-6.854 2.355 0 4.663 1.296 5.817 3.745.401.872.636 2.167.66 3.156h-11.588v.306c0 4.122 2.685 6.053 5.135 6.17h.141c1.813 0 3.957-1.224 3.957-3.084 0-.165-.024-.307-.047-.471l.141-.047.636 1.695c-1.084 1.555-3.015 2.45-4.852 2.45zm5.064-7.914c-.259-2.779-2.026-5.51-5.064-5.51-3.062 0-4.804 2.731-5.064 5.51h10.128zm7.719 7.89h-.189c-2.166-.023-4.192-.66-5.346-2.426l.895-1.601.306.117a2.028 2.028 0 00-.165.801c0 1.649 2.214 2.638 4.169 2.638h.094c2.12 0 4.145-.73 4.381-2.756v-.14c0-1.178-1.39-2.073-2.308-2.568-2.567-1.342-6.665-2.214-6.712-4.828v-.024c0-2.19 2.378-3.156 4.898-3.18 1.884 0 3.816.519 4.758 1.461l-.542 1.743-.212-.024.024-.282c0-1.531-2.002-2.403-4.028-2.497h-.282c-1.814 0-3.627.613-3.627 2.096v.024c0 1.743 2.355 2.331 4.498 3.344 2.402 1.107 4.64 2.19 4.64 4.499l-.047.565c-.307 2.096-2.709 3.038-5.205 3.038zm12.029 0h-.189c-2.167-.023-4.192-.66-5.346-2.426l.895-1.601.306.117a2.028 2.028 0 00-.165.801c0 1.649 2.214 2.638 4.169 2.638h.094c2.12 0 4.145-.73 4.381-2.756v-.14c0-1.178-1.39-2.073-2.308-2.568-2.568-1.342-6.666-2.214-6.713-4.828v-.024c0-2.19 2.379-3.156 4.899-3.18 1.884 0 3.815.519 4.758 1.461l-.542 1.743-.212-.024.023-.282c0-1.531-2.001-2.403-4.027-2.497h-.282c-1.814 0-3.627.613-3.627 2.096v.024c0 1.743 2.355 2.331 4.498 3.344 2.402 1.107 4.64 2.19 4.64 4.499l-.048.565c-.306 2.096-2.708 3.038-5.204 3.038zm8.119-6.9c0 3.155 1.931 6.476 5.487 6.476 1.625 0 3.981-.848 4.287-2.614.023-.118.023-.212.023-.33 0-.094 0-.212-.023-.306l.141-.047.636 1.672c-.942 1.343-3.486 2.12-5.017 2.12-3.886 0-7.041-3.11-7.041-6.972 0-3.862 3.155-6.995 7.041-6.995 1.649 0 3.51.307 4.64 1.437l-.33 1.743h-.141v-.118c0-1.696-2.167-2.567-4.169-2.567-3.532 0-5.534 3.32-5.534 6.5zm15.892 6.547h-4.333v-.07h.047c.259 0 1.413-.072 1.413-1.414V29.427c0-1.413-1.296-1.46-1.437-1.46h-.023v-.07c1.012 0 2.425-.095 2.873-.377v16.792c0 1.413 1.295 1.46 1.437 1.46h.023v.07zm8.179.377c-2.732 0-5.417-1.484-5.488-4.64v-7.843c0-1.413-1.295-1.46-1.437-1.46h-.023v-.07h.447c.942 0 2.073-.071 2.45-.33v9.68c.117 2.943 2.331 4.168 4.569 4.168h.188c2.379-.07 4.593-1.507 4.593-4.946v-6.995c0-1.413-1.296-1.46-1.437-1.46h-.024v-.07h.26c.989 0 2.213-.118 2.614-.377v12.411c0 1.437 1.295 1.484 1.436 1.484h.024v.047c-1.013 0-2.426.094-2.873.377v-2.237c-1.201 1.319-2.944 2.143-4.805 2.237l-.494.024zm10.843-16.746c0-1.436-1.295-1.483-1.436-1.483h-.024v-.047c1.013 0 2.426-.095 2.874-.377v6.312a7.043 7.043 0 014.427-1.555c3.91 0 7.066 3.109 7.066 6.971 0 3.886-3.156 6.925-7.066 6.925-2.002 0-3.203-.919-4.004-.919-.73.024-1.436.612-1.813.966l-.024-.024V29.474zm5.841 3.345c-3.203 0-4.427 1.954-4.427 4.592v4.451c0 2.615 1.813 3.863 4.451 3.863 3.533 0 5.511-3.274 5.511-6.43 0-3.18-1.978-6.476-5.535-6.476zm13.662 13.377h-.189c-2.166-.023-4.192-.66-5.346-2.426l.895-1.601.306.117a2.028 2.028 0 00-.165.801c0 1.649 2.214 2.638 4.169 2.638h.094c2.12 0 4.145-.73 4.381-2.756v-.14c0-1.178-1.39-2.073-2.308-2.568-2.567-1.342-6.665-2.214-6.712-4.828v-.024c0-2.19 2.378-3.156 4.898-3.18 1.884 0 3.816.519 4.758 1.461l-.542 1.743-.212-.024.024-.282c0-1.531-2.002-2.403-4.028-2.497h-.282c-1.814 0-3.627.613-3.627 2.096v.024c0 1.743 2.355 2.331 4.498 3.344 2.402 1.107 4.64 2.19 4.64 4.499l-.047.565c-.307 2.096-2.709 3.038-5.205 3.038zm8.684-.33c-.73 0-1.342-.588-1.342-1.319a1.341 1.341 0 112.685 0c0 .73-.613 1.32-1.343 1.32zm7.534-.023h-4.31v-.07h.07c.306 0 1.39-.095 1.39-1.296V33.83c0-.777-.377-1.13-.73-1.319a1.917 1.917 0 00-.683-.14h-.047V32.3c1.012 0 2.402-.14 2.849-.423v2.284c.872-.99 2.52-1.86 3.886-1.884h.142c.824 0 1.648.212 2.402.966l-.33 1.742h-.141v-.07c0-1.107-1.083-2.332-2.19-2.332h-.024c-2.402.047-3.745 2.52-3.745 4.758v6.994c0 .825.542 1.437 1.414 1.437h.047v.07zm12.591.377c-2.732 0-5.417-1.484-5.488-4.64v-7.843c0-1.413-1.295-1.46-1.436-1.46h-.024v-.07h.447c.943 0 2.073-.071 2.45-.33v9.68c.118 2.943 2.331 4.168 4.569 4.168h.188c2.379-.07 4.593-1.507 4.593-4.946v-6.995c0-1.413-1.295-1.46-1.437-1.46h-.023v-.07h.259c.989 0 2.214-.118 2.614-.377v12.411c0 1.437 1.295 1.484 1.437 1.484h.023v.047c-1.013 0-2.426.094-2.873.377v-2.237c-1.201 1.319-2.944 2.143-4.805 2.237l-.494.024z" fill="#060606"/><path d="M33.473 47.455l-.308.078.052.313c.022.135.04.269.04.374 0 .103-.017.21-.04.351-.167 1.006-.902 1.837-1.893 2.428-.99.588-2.185.904-3.17.904-2.137 0-3.81-1.062-4.961-2.631-1.155-1.576-1.773-3.653-1.773-5.624 0-1.972.618-4.049 1.773-5.625 1.15-1.57 2.824-2.631 4.96-2.631 1.23 0 2.5.331 3.452.914.954.583 1.54 1.382 1.54 2.316v.482h.815l.05-.285.402-2.264.031-.176-.125-.127c-1.534-1.555-4.028-1.937-6.164-1.937-5.18 0-9.144 4.171-9.144 9.333 0 5.16 3.963 9.331 9.144 9.331 1.031 0 2.38-.259 3.621-.736 1.234-.473 2.422-1.184 3.073-2.13l.102-.149-.064-.17-.826-2.172-.11-.288-.298.075-.179.046z" fill="#060606" stroke="#E9E9E9" stroke-width=".691"/><path fill-rule="evenodd" clip-rule="evenodd" d="M13.62 35.564h5.635c2.595 0 3.847-2.013 3.87-3.98v-.068c0-1.856-1.097-3.645-3.132-3.645H15.79c-1.834 0-2.17.604-2.17 1.364v6.329zm0 2.17v4.964c0 .376.086.722.413.972.055.287.126.567.215.84H10.6v-.067h.023c.134 0 1.565-.045 1.61-1.655V29.123c-.045-1.588-1.476-1.633-1.61-1.633H10.6v-.067h9.863c2.93 0 4.383 1.946 4.383 4.004v.089c-.02 1.683-1.007 3.386-2.922 4.175a11.257 11.257 0 00-1.315-.074c-1.12 0-2.162.263-3.075.73h-1.745c-1.834 0-2.17.626-2.17 1.386zm2.526 6.776h5.457c2.863 0 4.317-1.879 4.384-3.914v-.09a4.55 4.55 0 00-.869-2.665l-.243 1.352h-.724v-.421c0-.63-.4-1.18-1.079-1.59a4.078 4.078 0 00-.68-.325c1.264.74 1.873 2.172 1.873 3.56 0 .056-.006.117-.011.179a1.898 1.898 0 00-.012.179c-.134 1.722-1.207 3.287-3.108 3.287h-5.116a7 7 0 00.128.448zm5.51-8.192c1.272.246 2.421.927 2.735 1.911l.015.05c.045.157.069.321.069.493v.097h.13l.245-1.363" fill="#060606"/></svg>