<svg width="198" height="60" fill="none" xmlns="http://www.w3.org/2000/svg"><path d="M55.99 28.254h4.292c1.976 0 2.93-1.533 2.947-3.032v-.051c0-1.414-.834-2.777-2.385-2.777h-3.202c-1.397 0-1.653.46-1.653 1.039v4.821zm0 1.652v3.782c0 .562.255 1.04 1.652 1.04h4.071c1.448 0 2.266-1.193 2.368-2.505 0-.085.017-.187.017-.272 0-1.517-.954-3.1-2.964-3.1h-3.492c-1.397 0-1.653.476-1.653 1.055zm-1.057 3.85V23.348c-.034-1.21-1.124-1.244-1.227-1.244h-.017v-.05h7.513c2.232 0 3.339 1.481 3.339 3.048v.069c-.017 1.38-.886 2.776-2.572 3.304 2.3.256 3.44 1.942 3.44 3.544v.068c-.05 1.55-1.158 2.981-3.338 2.981h-8.382v-.051h.017c.103 0 1.193-.034 1.227-1.26zm16.536 1.585c-1.976 0-3.918-1.074-3.969-3.356v-5.673c0-1.022-.937-1.056-1.04-1.056h-.016v-.051h.323c.682 0 1.5-.051 1.772-.239v7.002c.085 2.13 1.687 3.015 3.305 3.015h.136c1.72-.051 3.322-1.09 3.322-3.577v-5.06c0-1.022-.937-1.056-1.039-1.056h-.017v-.051h.187c.716 0 1.602-.085 1.891-.273v8.978c0 1.039.937 1.073 1.04 1.073h.016v.034c-.732 0-1.754.068-2.078.273v-1.619c-.869.954-2.13 1.55-3.475 1.619l-.358.017zm10.638-.017h-.137c-1.567-.017-3.032-.477-3.867-1.755l.648-1.158.221.085a1.47 1.47 0 00-.12.579c0 1.192 1.602 1.908 3.016 1.908h.068c1.533 0 2.998-.528 3.169-1.993v-.102c0-.852-1.005-1.5-1.67-1.857-1.856-.971-4.82-1.602-4.855-3.492v-.018c0-1.584 1.72-2.282 3.544-2.3 1.363 0 2.76.375 3.44 1.057l-.391 1.26-.153-.017.017-.204c0-1.107-1.448-1.738-2.913-1.806h-.205c-1.311 0-2.623.443-2.623 1.516v.017c0 1.261 1.703 1.687 3.253 2.42 1.738.8 3.356 1.584 3.356 3.253l-.034.41c-.221 1.515-1.959 2.197-3.764 2.197zm7.704-.256h-3.134v-.051h.017c.12 0 1.056-.034 1.056-.988v-7.7c0-1.04-.954-1.073-1.056-1.073h-.017v-.034c.732 0 1.754-.034 2.078-.256v9.063c0 .954.92.988 1.04.988h.016v.051zm-1.516-10.817a.564.564 0 01-.545-.563.55.55 0 01.545-.545c.307 0 .562.239.562.546a.567.567 0 01-.562.562zm13.392 10.817h-2.964v-.051h.034c.17 0 .954-.051.954-1.005v-5.043c-.102-2.265-1.806-3.39-3.56-3.39h-.034c-1.636 0-3.186.971-3.186 3.305v5.094c0 .613.375 1.039 1.022 1.039h.034v.051H90.87v-.034s1.056 0 1.056-1.04v-7.7c0-.578-.29-.834-.58-.953-.238-.102-.476-.102-.476-.102v-.051h.408c.648 0 1.38-.034 1.653-.205v1.636c.835-.937 2.112-1.38 3.407-1.38 2.146 0 4.31 1.277 4.361 3.713v5.026c0 1.005.869 1.039.971 1.039h.017v.051zm5.511.273h-.051c-2.692-.051-4.651-2.539-4.651-5.11 0-2.658 1.942-4.958 4.702-4.958 1.703 0 3.373.937 4.207 2.708.29.63.46 1.568.477 2.283h-8.381v.222c0 2.98 1.942 4.378 3.714 4.463h.102c1.312 0 2.862-.886 2.862-2.232 0-.119-.017-.221-.034-.34l.102-.035.46 1.227c-.784 1.124-2.181 1.772-3.509 1.772zm3.662-5.724c-.187-2.01-1.465-3.986-3.662-3.986-2.215 0-3.476 1.976-3.663 3.986h7.325zm5.584 5.707h-.137c-1.567-.017-3.032-.477-3.867-1.755l.648-1.158.221.085a1.472 1.472 0 00-.119.579c0 1.192 1.601 1.908 3.015 1.908h.068c1.533 0 2.998-.528 3.169-1.993v-.102c0-.852-1.005-1.5-1.67-1.857-1.857-.971-4.821-1.602-4.855-3.492v-.018c0-1.584 1.721-2.282 3.544-2.3 1.362 0 2.759.375 3.441 1.057l-.392 1.26-.153-.017.017-.204c0-1.107-1.448-1.738-2.913-1.806h-.205c-1.312 0-2.623.443-2.623 1.516v.017c0 1.261 1.703 1.687 3.254 2.42 1.737.8 3.355 1.584 3.355 3.253l-.034.41c-.221 1.515-1.959 2.197-3.764 2.197zm8.7 0h-.136c-1.567-.017-3.032-.477-3.867-1.755l.647-1.158.222.085a1.472 1.472 0 00-.119.579c0 1.192 1.601 1.908 3.015 1.908h.068c1.533 0 2.998-.528 3.169-1.993v-.102c0-.852-1.006-1.5-1.67-1.857-1.857-.971-4.821-1.602-4.855-3.492v-.018c0-1.584 1.721-2.282 3.543-2.3 1.363 0 2.76.375 3.441 1.057l-.391 1.26-.154-.017.017-.204c0-1.107-1.448-1.738-2.913-1.806h-.204c-1.312 0-2.624.443-2.624 1.516v.017c0 1.261 1.704 1.687 3.254 2.42 1.738.8 3.356 1.584 3.356 3.253l-.034.41c-.221 1.515-1.959 2.197-3.765 2.197zm5.873-4.992c0 2.283 1.397 4.685 3.969 4.685 1.176 0 2.879-.613 3.101-1.89.017-.086.017-.154.017-.24 0-.068 0-.153-.017-.22l.102-.035.46 1.21c-.681.97-2.521 1.533-3.629 1.533-2.81 0-5.093-2.249-5.093-5.043s2.283-5.06 5.093-5.06c1.193 0 2.539.222 3.356 1.04l-.238 1.26h-.102v-.085c0-1.226-1.568-1.856-3.016-1.856-2.555 0-4.003 2.401-4.003 4.701zm11.495 4.736h-3.134v-.051h.034c.187 0 1.022-.051 1.022-1.022v-10.8c0-1.023-.937-1.057-1.039-1.057h-.017v-.05c.732 0 1.754-.069 2.078-.273V33.96c0 1.022.937 1.056 1.039 1.056h.017v.051zm5.916.273c-1.976 0-3.918-1.074-3.969-3.356v-5.673c0-1.022-.937-1.056-1.039-1.056h-.018v-.051h.324c.682 0 1.499-.051 1.772-.239v7.002c.085 2.13 1.686 3.015 3.305 3.015h.136c1.721-.051 3.322-1.09 3.322-3.577v-5.06c0-1.022-.937-1.056-1.039-1.056h-.017v-.051h.187c.716 0 1.601-.085 1.891-.273v8.978c0 1.039.937 1.073 1.039 1.073h.017v.034c-.732 0-1.754.068-2.078.273v-1.619c-.869.954-2.13 1.55-3.475 1.619l-.358.017zm7.844-12.113c0-1.039-.937-1.073-1.04-1.073h-.017v-.034c.733 0 1.755-.068 2.079-.272v4.565a5.095 5.095 0 013.202-1.124c2.828 0 5.111 2.248 5.111 5.042 0 2.811-2.283 5.009-5.111 5.009-1.448 0-2.316-.665-2.896-.665-.528.017-1.039.443-1.311.699l-.017-.017v-12.13zm4.224 2.42c-2.316 0-3.202 1.413-3.202 3.322v3.22c0 1.89 1.311 2.793 3.219 2.793 2.556 0 3.987-2.368 3.987-4.65 0-2.3-1.431-4.685-4.004-4.685zm9.882 9.676h-.136c-1.568-.017-3.033-.477-3.867-1.755l.647-1.158.221.085a1.472 1.472 0 00-.119.579c0 1.192 1.601 1.908 3.015 1.908h.069c1.533 0 2.998-.528 3.168-1.993v-.102c0-.852-1.005-1.5-1.669-1.857-1.857-.971-4.821-1.602-4.855-3.492v-.018c0-1.584 1.72-2.282 3.543-2.3 1.363 0 2.76.375 3.441 1.057l-.392 1.26-.153-.017.017-.204c0-1.107-1.448-1.738-2.913-1.806h-.204c-1.312 0-2.624.443-2.624 1.516v.017c0 1.261 1.704 1.687 3.254 2.42 1.737.8 3.356 1.584 3.356 3.253l-.034.41c-.222 1.515-1.959 2.197-3.765 2.197zm6.282-.239a.966.966 0 01-.971-.954.97.97 0 111.942 0 .967.967 0 01-.971.954zm5.449-.017h-3.118v-.051h.051c.222 0 1.005-.068 1.005-.937v-7.7c0-.562-.272-.818-.528-.954a1.385 1.385 0 00-.494-.102h-.034v-.051c.733 0 1.738-.102 2.061-.307v1.653c.631-.716 1.823-1.346 2.811-1.363h.103c.596 0 1.192.153 1.737.698l-.238 1.26h-.103v-.05c0-.8-.783-1.687-1.584-1.687h-.017c-1.738.034-2.709 1.823-2.709 3.441v5.06c0 .596.392 1.039 1.023 1.039h.034v.051zm9.107.273c-1.976 0-3.918-1.074-3.969-3.356v-5.673c0-1.022-.937-1.056-1.039-1.056h-.017v-.051h.323c.682 0 1.499-.051 1.772-.239v7.002c.085 2.13 1.686 3.015 3.305 3.015h.136c1.721-.051 3.322-1.09 3.322-3.577v-5.06c0-1.022-.937-1.056-1.039-1.056h-.017v-.051h.187c.716 0 1.602-.085 1.891-.273v8.978c0 1.039.937 1.073 1.039 1.073h.017v.034c-.732 0-1.754.068-2.078.273v-1.619a5.065 5.065 0 01-3.475 1.619l-.358.017z" fill="#060606"/><circle cx="24.5" cy="29.5" r="23.758" stroke="#000" stroke-width="1.485"/><path d="M35.95 38.044l-.33.084.056.336c.023.145.043.289.043.402 0 .11-.019.226-.043.377-.18 1.08-.969 1.973-2.034 2.607-1.062.632-2.346.972-3.404.972-2.296 0-4.093-1.141-5.328-2.827-1.241-1.692-1.904-3.923-1.904-6.04s.663-4.348 1.904-6.04c1.235-1.686 3.032-2.827 5.328-2.827 1.32 0 2.684.356 3.706.982 1.025.626 1.655 1.484 1.655 2.488v.517h.873l.055-.307.432-2.43.034-.19-.135-.136c-1.647-1.67-4.326-2.08-6.62-2.08-5.564 0-9.821 4.48-9.821 10.023 0 5.543 4.257 10.023 9.82 10.023 1.108 0 2.557-.279 3.89-.791 1.325-.509 2.602-1.273 3.3-2.288l.11-.16-.069-.182-.887-2.334-.118-.309-.32.081-.192.049z" fill="#060606" stroke="#E9E9E9" stroke-width=".742"/><path fill-rule="evenodd" clip-rule="evenodd" d="M14.628 25.272h6.053c2.786 0 4.131-2.161 4.155-4.275v-.072c0-1.994-1.177-3.915-3.363-3.915h-4.515c-1.97 0-2.33.648-2.33 1.465v6.797zm0 2.33v5.333c0 .792.36 1.465 2.33 1.465h3.718c.01.161.024.321.04.48h-9.331v-.072h.024c.144 0 1.681-.048 1.73-1.777V18.355c-.049-1.706-1.586-1.754-1.73-1.754h-.024v-.072h10.593c3.146 0 4.707 2.09 4.707 4.3v.096c-.023 1.945-1.248 3.915-3.627 4.66.483.053.93.152 1.34.288a9.796 9.796 0 00-.696.61 4.372 4.372 0 00-1.82-.37h-4.924c-1.97 0-2.33.673-2.33 1.49zm6.53 6.798zm3.867-6.913zm.299.403a7.667 7.667 0 01.882-1.008 4.886 4.886 0 011.704 3.699v.096c-.069 2.107-1.522 4.057-4.38 4.196a10.285 10.285 0 01-.047-.563c1.552-.371 2.43-1.843 2.554-3.441 0-.06.006-.126.012-.192a2.2 2.2 0 00.012-.192c0-.907-.242-1.832-.738-2.595z" fill="#060606"/></svg>