<svg width="18" height="32" fill="none" xmlns="http://www.w3.org/2000/svg"><path d="M6.923 14.995a2.077 2.077 0 114.154 0 2.077 2.077 0 01-4.154 0z" fill="#fff"/><path fill-rule="evenodd" clip-rule="evenodd" d="M0 14.995A8.999 8.999 0 019 6c4.97 0 9 4.028 9 8.995 0 3.702-1.853 6.636-3.838 8.619a15.04 15.04 0 01-2.929 2.29c-.446.263-.862.47-1.225.612-.342.136-.7.24-1.008.24-.307 0-.666-.105-1.008-.24a8.924 8.924 0 01-1.225-.612 15.047 15.047 0 01-2.929-2.29C1.853 21.63 0 18.697 0 14.994zm9-3.46a3.461 3.461 0 100 6.922 3.461 3.461 0 000-6.923z" fill="#fff"/></svg>